<svg width="13" height="20" viewBox="0 0 13 20" fill="none" xmlns="http://www.w3.org/2000/svg">
<path d="M6.72781 9.23038C7.90846 9.04623 8.52272 8.36077 8.68227 8.04106C8.81523 7.59346 8.9535 6.71362 8.44295 6.775C7.9324 6.83639 7.61862 7.3377 7.52555 7.58068C7.52555 7.49116 7.42184 7.18935 7.00702 6.69827C6.59219 6.2072 6.22257 6.49366 6.08962 6.69827C6.03643 7.20981 5.85827 8.10244 5.57109 7.58068C5.2839 7.05891 4.76005 6.97962 4.53402 7.0052C4.42766 7.29933 4.27875 7.91829 4.53402 8.04106C4.7893 8.16383 5.57109 9.03855 5.93007 9.46057C5.94336 10.586 6.03377 13.0132 6.28905 13.7191C7.1187 14.1181 7.75158 13.8854 7.96431 13.7191C8.07067 13.6935 8.36318 13.3355 8.68227 12.1078C9.00137 10.8801 9.74593 9.83144 10.0783 9.46057C10.5703 8.9874 11.6419 7.74181 11.9929 6.54481C12.1524 2.80036 9.58638 1.09695 8.2834 0.713298C7.02031 0.342434 3.99156 0.191531 1.98126 2.55483C-0.531625 5.50896 2.49979 9.11529 3.13798 9.84423C3.64853 10.4274 3.13798 12.6618 3.6964 13.4122C3.96591 13.7744 6.24119 14.9238 8.44295 15.1386C8.92159 15.2921 8.80193 15.7908 8.68227 16.021C7.40589 15.8676 4.75739 15.4072 4.37448 14.7933C3.70437 14.5171 3.64321 14.9084 3.6964 15.1386C3.84265 15.4839 4.90098 16.3049 7.96431 16.8267C8.73014 17.3485 7.85794 17.4533 7.32611 17.4405C6.4486 17.2231 4.62975 16.7423 4.37448 16.5581C4.1192 16.374 3.94901 16.4814 3.89583 16.5581C3.81606 16.7244 4.39043 17.2948 7.32611 18.2462C7.83667 18.6145 7.32611 18.6299 7.00702 18.5915C6.47519 18.4764 5.30783 18.2079 4.89301 18.0544C4.37448 17.8626 4.69357 19.0519 5.13233 19.2821C5.57109 19.5123 5.93007 19.6274 6.72781 19.2821" stroke="#5C7D4F" stroke-width="0.5" stroke-linecap="round"/>
</svg>
