<svg width="384" height="301" viewBox="0 0 384 301" fill="none" xmlns="http://www.w3.org/2000/svg">
<g style="mix-blend-mode:soft-light" opacity="0.4">
<path d="M1 193.425C1 202.705 10.1967 207.755 14.795 207.755L150.446 207.755L154.278 194.79C110.338 194.79 21.6925 194.79 18.627 194.79C15.5614 194.79 14.795 192.061 14.795 190.696C14.795 157.26 14.795 89.7065 14.795 86.977C14.795 84.2476 17.8606 83.1103 19.3934 82.8829L158.876 84.93L168.073 72.6475L16.3278 72.6475C4.67868 72.6475 1.25546 79.4711 1 82.8829" stroke="white" stroke-dasharray="39 39"/>
<path d="M371.167 82.8833C371.167 73.6032 361.97 68.5537 357.371 68.5537L221.72 68.5537L217.888 81.5186C261.828 81.5186 350.474 81.5186 353.54 81.5186C356.605 81.5186 357.371 84.248 357.371 85.6127C357.371 119.048 357.371 186.602 357.371 189.332C357.371 192.061 354.306 193.198 352.773 193.426L213.29 191.379L204.093 203.661L355.839 203.661C367.488 203.661 370.911 196.838 371.167 193.426" stroke="white" stroke-dasharray="39 39"/>
<path d="M122.855 155.214L225.552 1L185.7 122.46H237.814L127.454 300.556L177.269 155.214H122.855Z" fill="white" stroke="white" stroke-dasharray="39 39"/>
<path d="M368.1 169.543V108.131C378.523 108.131 382.662 117.002 382.662 121.096C382.917 130.421 383.275 150.71 382.662 157.261C382.048 163.812 372.698 168.179 368.1 169.543Z" fill="white" stroke="white" stroke-dasharray="39 39"/>
</g>
</svg>
