<svg width="220" height="238" viewBox="0 0 220 238" fill="none" xmlns="http://www.w3.org/2000/svg">
<path d="M140 75.5V238H149.5L148 118.5L162.5 167L174 199.5L182.5 218.5L170 181.5L160.5 146L148 85.5V69C148.5 69 151 66 152 63.5C155.2 62.7 168.667 50.8333 175 45L219.5 1L196 20L152 54C151.5 53.5 149.125 53.5 148 54C144.4 55.6 141.167 59 140 60.5C140 61.5 139.5 63.5 137.5 63.5C135 63.5 121 55 119 54.5C117.4 54.1 85 42.6667 69 37L1 9L52.5 35C61.8333 39.1667 81.7 48.1 86.5 50.5C91.3 52.9 105.833 59.1667 112.5 62C116.5 63.1667 125.4 65.8 129 67C133.5 68.5 132 68 136 69.5C139.2 70.7 140 74 140 75.5Z" fill="#5C7D4F" stroke="#5C7D4F"/>
</svg>
