<svg viewBox="0 0 120 100" xmlns="http://www.w3.org/2000/svg" fill="currentColor">
  <path d="M45.5 50.5a2.5 2.5 0 1 0-5 0 2.5 2.5 0 0 0 5 0z" />
  <path d="M43 48c0-1.8-1.5-3.3-3.3-3.3a3.3 3.3 0 0 0-3.2 3.3v17.5l-2 49h2.5l1.7-41.2V48z" />
  <path d="M43 48L22.3 8.8a1 1 0 0 0-1.6.8v31.2l22.3 7.2z" />
  <path d="M43 48l24.3 22.8a1 1 0 0 0 1.6-.2l-7-33.8-18.9 11.2z" />
  <path d="M43 48l-19.8 30.7a1 1 0 0 0 1.3 1.3L43 51.7V48z" />
  <path d="M85.5 50.5a2.5 2.5 0 1 0-5 0 2.5 2.5 0 0 0 5 0z" />
  <path d="M83 48c0-1.8-1.5-3.3-3.3-3.3a3.3 3.3 0 0 0-3.2 3.3v17.5l-2 49h2.5l1.7-41.2V48z" />
  <path d="M83 48L62.3 8.8a1 1 0 0 0-1.6.8v31.2l22.3 7.2z" />
  <path d="M83 48l24.3 22.8a1 1 0 0 0 1.6-.2l-7-33.8-18.9 11.2z" />
  <path d="M83 48l-19.8 30.7a1 1 0 0 0 1.3 1.3L83 51.7V48z" />
</svg>